<svg xmlns="http://www.w3.org/2000/svg" viewBox="0 0 1000 300" preserveAspectRatio="none">
    <!-- Base blocky skyline -->
    <path fill="#02081f" d="M0,300 L0,200 L50,200 L50,150 L100,150 L100,250 L150,250 L150,100 L220,100 L220,280 L280,280 L280,180 L350,180 L350,80 L420,80 L420,220 L480,220 L480,50 L550,50 L550,200 L620,200 L620,120 L700,120 L700,250 L750,250 L750,100 L820,100 L820,180 L900,180 L900,220 L950,220 L950,150 L1000,150 L1000,300 Z" />
    <!-- Adding some glowing windows -->
    <rect x="60" y="160" width="10" height="20" fill="#ffff99" opacity="0.8" />
    <rect x="160" y="120" width="10" height="20" fill="#ffff99" opacity="0.6" />
    <rect x="360" y="100" width="10" height="20" fill="#ffff99" opacity="0.9" />
    <rect x="500" y="80" width="10" height="20" fill="#ffff99" opacity="0.5" />
    <rect x="640" y="150" width="10" height="20" fill="#ffff99" opacity="0.7" />
    <rect x="760" y="120" width="10" height="20" fill="#ffff99" opacity="0.8" />
    <rect x="910" y="190" width="10" height="20" fill="#ffff99" opacity="0.6" />
</svg>
