<svg xmlns="http://www.w3.org/2000/svg" viewBox="0 0 100 100">
    <g fill="#1a1a1a">
        <!-- Body -->
        <circle cx="50" cy="50" r="15" />
        <!-- Head -->
        <circle cx="50" cy="30" r="10" />
        <!-- Legs Left -->
        <path d="M40,30 Q20,10 10,20" stroke="#1a1a1a" stroke-width="4" fill="none" stroke-linecap="round"/>
        <path d="M35,45 Q15,40 5,50" stroke="#1a1a1a" stroke-width="4" fill="none" stroke-linecap="round"/>
        <path d="M35,55 Q15,60 10,80" stroke="#1a1a1a" stroke-width="4" fill="none" stroke-linecap="round"/>
        <path d="M40,60 Q30,80 20,90" stroke="#1a1a1a" stroke-width="4" fill="none" stroke-linecap="round"/>
        <!-- Legs Right -->
        <path d="M60,30 Q80,10 90,20" stroke="#1a1a1a" stroke-width="4" fill="none" stroke-linecap="round"/>
        <path d="M65,45 Q85,40 95,50" stroke="#1a1a1a" stroke-width="4" fill="none" stroke-linecap="round"/>
        <path d="M65,55 Q85,60 90,80" stroke="#1a1a1a" stroke-width="4" fill="none" stroke-linecap="round"/>
        <path d="M60,60 Q70,80 80,90" stroke="#1a1a1a" stroke-width="4" fill="none" stroke-linecap="round"/>
    </g>
    <!-- Red Logo Mark on back -->
    <path fill="red" d="M50,40 L45,60 L50,65 L55,60 Z" />
</svg>
